<?xml version="1.0" encoding="iso-8859-1"?>
<!-- Generator: Adobe Illustrator 19.0.0, SVG Export Plug-In . SVG Version: 6.00 Build 0)  -->
<svg version="1.1" id="Layer_1" xmlns="http://www.w3.org/2000/svg" xmlns:xlink="http://www.w3.org/1999/xlink" x="0px" y="0px"
	 viewBox="0 0 512 512" style="enable-background:new 0 0 512 512;" xml:space="preserve">
<pattern  x="-50" y="652" width="39.013" height="39.013" patternUnits="userSpaceOnUse" id="New_Pattern_Swatch_23" viewBox="0 -39.013 39.013 39.013" style="overflow:visible;">
	<g>
		<polygon style="fill:none;" points="0,0 39.013,0 39.013,-39.013 0,-39.013 		"/>
		<polygon style="fill:none;" points="0,-39.013 39.013,-39.013 39.013,0 0,0 		"/>
		<polygon style="fill:#656566;" points="39.013,-39.013 0,-39.013 0,0 39.013,0 		"/>
	</g>
</pattern>
<pattern  x="-50" y="652" width="39.013" height="39.013" patternUnits="userSpaceOnUse" id="New_Pattern_Swatch_29" viewBox="0 -39.013 39.013 39.013" style="overflow:visible;">
	<g>
		<polygon style="fill:none;" points="0,0 39.013,0 39.013,-39.013 0,-39.013 		"/>
		<polygon style="fill:none;" points="0,-39.013 39.013,-39.013 39.013,0 0,0 		"/>
		<polygon style="fill:#C4D0A7;" points="39.013,-39.013 0,-39.013 0,0 39.013,0 		"/>
	</g>
</pattern>
<pattern  x="-50" y="652" width="39.013" height="39.013" patternUnits="userSpaceOnUse" id="New_Pattern_Swatch_34" viewBox="0 -39.013 39.013 39.013" style="overflow:visible;">
	<g>
		<polygon style="fill:none;" points="0,0 39.013,0 39.013,-39.013 0,-39.013 		"/>
		<polygon style="fill:none;" points="0,-39.013 39.013,-39.013 39.013,0 0,0 		"/>
		<polygon style="fill:#DAE7B9;" points="39.013,-39.013 0,-39.013 0,0 39.013,0 		"/>
	</g>
</pattern>
<path style="fill:#2488FF;" d="M494.933,0H17.067C7.642,0,0,7.642,0,17.067v477.865C0,504.358,7.642,512,17.067,512h477.865
	c9.426,0,17.067-7.642,17.067-17.067V17.067C512,7.642,504.358,0,494.933,0z"/>
<path style="fill:#006DF0;" d="M494.933,0H253.56v512h241.373c9.426,0,17.067-7.642,17.067-17.067V17.067
	C512,7.642,504.358,0,494.933,0z"/>
<path style="fill:#E0E0E2;" d="M327.346,188.534c-5.214,5.214-13.429,5.798-19.343,1.395c-30.743-22.887-73.264-22.886-104.006,0
	c-5.901,4.393-14.141,3.807-19.343-1.395L117.56,121.44c-2.922-2.922-4.492-6.928-4.336-11.057c0.157-4.128,2.03-8.002,5.162-10.697
	c78.866-67.849,196.358-67.849,275.227,0c3.13,2.692,4.995,6.568,5.151,10.693c0.157,4.126-1.405,8.141-4.325,11.061
	L327.346,188.534z"/>
<pattern  id="SVGID_1_" xlink:href="#New_Pattern_Swatch_23" patternTransform="matrix(1.1379 0 0 -1.1379 2340.3081 -20956.3867)">
</pattern>
<path style="fill:url(#SVGID_1_);" d="M236.495,209.943c-4.459,0-8.913-1.736-12.26-5.192l-69.787-72.038
	c-6.558-6.77-6.388-17.575,0.382-24.133c6.77-6.56,17.576-6.388,24.133,0.382L248.75,181c6.558,6.77,6.388,17.575-0.382,24.133
	C245.053,208.345,240.771,209.943,236.495,209.943z"/>
<path style="fill:#D8D7DA;" d="M393.613,99.685c-40.088-34.487-90.153-51.432-140.053-50.861V172.81
	c19.124-0.53,38.388,5.166,54.443,17.118c5.914,4.403,14.13,3.819,19.343-1.395l67.094-67.094c2.92-2.92,4.482-6.934,4.325-11.061
	C398.608,106.251,396.743,102.379,393.613,99.685z"/>
<g>
	<path style="fill:#00479B;" d="M190.871,478.065H44.85c-5.027,0-9.103-4.076-9.103-9.103V235.707c0-5.027,4.076-9.103,9.103-9.103
		h146.021c5.027,0,9.103,4.076,9.103,9.103v233.255C199.974,473.99,195.898,478.065,190.871,478.065z"/>
	<path style="fill:#00479B;" d="M321.129,478.065H467.15c5.027,0,9.103-4.076,9.103-9.103V235.707c0-5.027-4.076-9.103-9.103-9.103
		H321.129c-5.027,0-9.103,4.076-9.103,9.103v233.255C312.026,473.99,316.102,478.065,321.129,478.065z"/>
</g>
<path style="fill:#C6C5CA;" d="M118.387,120.183c78.866-67.849,196.358-67.849,275.226,0c0.37,0.319,0.719,0.655,1.052,1.006
	c2.766-2.897,4.251-6.796,4.098-10.809c-0.157-4.126-2.022-8.001-5.151-10.693c-78.869-67.849-196.36-67.849-275.227,0
	c-3.132,2.694-5.005,6.568-5.162,10.697c-0.152,4.015,1.34,7.907,4.109,10.806C117.668,120.839,118.017,120.501,118.387,120.183z"/>
<g>
	<path style="fill:#003F8A;" d="M162.513,368.265H71.978c-9.458,0-17.125-7.668-17.125-17.125l0,0
		c0-9.458,7.668-17.125,17.125-17.125h90.535c9.458,0,17.125,7.668,17.125,17.125l0,0
		C179.638,360.597,171.972,368.265,162.513,368.265z"/>
	<path style="fill:#003F8A;" d="M162.513,438.162H71.978c-9.458,0-17.125-7.668-17.125-17.125l0,0
		c0-9.458,7.668-17.125,17.125-17.125h90.535c9.458,0,17.125,7.668,17.125,17.125l0,0
		C179.638,430.494,171.972,438.162,162.513,438.162z"/>
	<path style="fill:#003F8A;" d="M439.408,298.367h-61.274c-9.458,0-17.125-7.668-17.125-17.125l0,0
		c0-9.458,7.668-17.125,17.125-17.125h61.274c9.458,0,17.125,7.668,17.125,17.125l0,0
		C456.533,290.699,448.865,298.367,439.408,298.367z"/>
	<path style="fill:#003F8A;" d="M132.396,298.367H71.121c-9.458,0-17.125-7.668-17.125-17.125l0,0
		c0-9.458,7.668-17.125,17.125-17.125h61.274c9.458,0,17.125,7.668,17.125,17.125l0,0
		C149.521,290.699,141.855,298.367,132.396,298.367z"/>
	<path style="fill:#003F8A;" d="M439.408,368.265h-90.535c-9.458,0-17.125-7.668-17.125-17.125l0,0
		c0-9.458,7.668-17.125,17.125-17.125h90.535c9.458,0,17.125,7.668,17.125,17.125l0,0
		C456.533,360.597,448.865,368.265,439.408,368.265z"/>
	<path style="fill:#003F8A;" d="M439.408,438.162h-90.535c-9.458,0-17.125-7.668-17.125-17.125l0,0
		c0-9.458,7.668-17.125,17.125-17.125h90.535c9.458,0,17.125,7.668,17.125,17.125l0,0
		C456.533,430.494,448.865,438.162,439.408,438.162z"/>
</g>
<path style="fill:#91CC04;" d="M255.995,148.787c-0.817,0-1.624,0.04-2.435,0.061v177.142c0.811,0.022,1.618,0.061,2.435,0.061
	c48.951,0,88.632-39.682,88.632-88.632C344.627,188.47,304.945,148.787,255.995,148.787z"/>
<pattern  id="SVGID_2_" xlink:href="#New_Pattern_Swatch_34" patternTransform="matrix(1.1379 0 0 -1.1379 2340.3081 -20956.3867)">
</pattern>
<path style="fill:url(#SVGID_2_);" d="M167.362,237.421c0,48.134,38.377,87.277,86.199,88.571V148.85
	C205.739,150.142,167.362,189.286,167.362,237.421z"/>
<path style="fill:#9DDC04;" d="M167.362,237.421c0,48.134,38.377,87.277,86.199,88.571V148.85
	C205.739,150.142,167.362,189.286,167.362,237.421z"/>
<path style="fill:#85BB04;" d="M253.56,192.404v90.033c24.862,0,45.016-20.154,45.016-45.016
	C298.577,212.558,278.422,192.404,253.56,192.404z"/>
<pattern  id="SVGID_3_" xlink:href="#New_Pattern_Swatch_29" patternTransform="matrix(1.1379 0 0 -1.1379 2340.3081 -20956.3867)">
</pattern>
<path style="fill:url(#SVGID_3_);" d="M208.544,237.421c0,24.862,20.154,45.016,45.016,45.016v-90.033
	C228.698,192.404,208.544,212.558,208.544,237.421z"/>
<path style="fill:#91CC04;" d="M208.544,237.421c0,24.862,20.154,45.016,45.016,45.016v-90.033
	C228.698,192.404,208.544,212.558,208.544,237.421z"/>
<g>
</g>
<g>
</g>
<g>
</g>
<g>
</g>
<g>
</g>
<g>
</g>
<g>
</g>
<g>
</g>
<g>
</g>
<g>
</g>
<g>
</g>
<g>
</g>
<g>
</g>
<g>
</g>
<g>
</g>
</svg>
